<?xml version="1.0" standalone="no"?>
<!DOCTYPE svg PUBLIC "-//W3C//DTD SVG 20010904//EN"
 "http://www.w3.org/TR/2001/REC-SVG-20010904/DTD/svg10.dtd">
<svg version="1.0" xmlns="http://www.w3.org/2000/svg"
 width="512.000000pt" height="512.000000pt" viewBox="0 0 512.000000 512.000000"
 preserveAspectRatio="xMidYMid meet">

<g transform="translate(0.000000,512.000000) scale(0.100000,-0.100000)"
fill="#000000" stroke="none">
<path d="M2380 4954 c-537 -51 -997 -242 -1386 -578 -441 -380 -716 -881 -811
-1478 -24 -157 -24 -517 1 -676 74 -472 259 -879 561 -1230 382 -445 916 -731
1515 -814 123 -17 478 -16 600 1 698 96 1291 459 1679 1026 465 680 549 1542
224 2304 -181 425 -491 794 -888 1056 -329 217 -705 349 -1100 385 -102 9
-313 11 -395 4z m266 -996 c381 -273 1323 -975 1336 -996 27 -41 23 -79 -11
-113 -49 -48 -82 -41 -194 41 -52 39 -98 70 -101 70 -3 0 -7 -401 -8 -891 l-3
-891 -33 -29 -32 -29 -335 0 c-216 0 -342 4 -358 11 -50 23 -52 31 -57 384 -5
318 -6 331 -28 372 -92 173 -309 214 -451 87 -97 -87 -95 -80 -101 -462 l-5
-334 -33 -29 -32 -29 -335 0 c-228 0 -342 4 -359 11 -58 27 -56 -2 -56 953 0
482 -2 876 -5 876 -3 0 -48 -31 -101 -70 -113 -82 -146 -89 -195 -41 -30 30
-36 61 -20 103 5 15 158 133 397 309 214 157 528 388 697 513 226 166 316 226
336 226 17 0 52 -17 87 -42z"/>
</g>
</svg>
